<?xml version="1.0" encoding="UTF-8" standalone="no"?>
<svg
   xmlns:dc="http://purl.org/dc/elements/1.1/"
   xmlns:cc="http://creativecommons.org/ns#"
   xmlns:rdf="http://www.w3.org/1999/02/22-rdf-syntax-ns#"
   xmlns:svg="http://www.w3.org/2000/svg"
   xmlns="http://www.w3.org/2000/svg"
   viewBox="0 0 1898.1851 1601.6219"
   height="1601.6219"
   width="1898.1851"
   id="svg4485"
   version="1.1">
  <metadata
     id="metadata4491">
    <rdf:RDF>
      <cc:Work
         rdf:about="">
        <dc:format>image/svg+xml</dc:format>
        <dc:type
           rdf:resource="http://purl.org/dc/dcmitype/StillImage" />
        <dc:title></dc:title>
      </cc:Work>
    </rdf:RDF>
  </metadata>
  <defs
     id="defs4489" />
  <path
     d="m 1729.2754,54.638672 v 54.789058 h -24.7617 v -7.875 h -25.5489 v 7.875 h -83.5546 v -7.875 h -25.2735 v 7.875 h -24.998 v -7.875 h -25.4121 v 7.875 h -33.4219 v -7.875 h -24.9961 v 7.875 h -33.5742 v -7.875 h -25.0977 v 7.875 h -24.8828 v -7.875 h -25.2734 v 7.875 h -16.6836 v 47.17188 h 66.9375 v 7.81445 h 25 v -7.81445 h 25 v 7.81445 h 25.5859 v -7.81445 h 32.8125 v 7.81445 h 25.586 v -7.81445 h 25 v 7.81445 h 25.1953 v -7.81445 h 142.3613 v 100.84375 h 8.2793 v 8.67187 h -8.2793 v 7.67774 h -8.6016 v -7.34375 h -58.5176 v 91.0625 h 58.5176 v -60.55469 h 8.6016 v 61.2207 h 8.1719 v 8.17188 h -8.1719 v 371.94141 h 8.1719 v 7.98437 h -8.1719 v 417.05471 h 8.4316 v 8.1523 h -8.5996 v 92.7598 h 8.3809 v 8.0488 h -25.0235 v -7.914 h 8.2989 v -92.8672 h -66.8965 v 92.8672 h 16.7207 v 7.914 h -8.3867 v 88.1543 h -8.418 v -7.6308 h -510.4277 v 7.8652 h -8.5137 v 7.7695 h -8.3301 v -15.5937 h -67.0058 -343.28715 v 15.6679 h -16.8125 v -7.8281 H 592.60352 206.6543 v -88.3223 h -7.8711 v -8.2988 h 7.96289 v -61.1992 h -47.1875 v 61.1992 h 7.66797 v 8.2988 h -7.77929 -15.96289 v -8.1777 h 7.83398 V 746.32812 h -7.73242 v -8.14453 h 7.74218 V 373.8418 h -7.63085 v -7.60157 h 7.63085 v -77.00781 h 8.10743 v 76.71289 h 54.91797 V 258.12109 h -54.91797 v 7.54493 h -8.10743 v -7.47657 h -7.62304 v -8.09179 h 15.69336 v -85.68164 h -7.88867 v -7.61133 h 7.88867 v -47.33203 h -47.20313 v 47.12304 h 7.79883 l 0.01,7.82032 h -7.8086 v 85.68164 h 7.69336 v 8.09179 h -7.64258 v 479.99414 h 7.56446 v 8.14453 h -7.61133 v 517.86718 h 7.54297 v 8.1777 h -7.58203 v 47.918 h 47.28711 7.59961 v 32.4297 h -7.59961 v 54.7148 h 47.20703 385.94922 v -0.043 -15.6778 h 15.74023 v 15.6778 h 91.0625 v -15.7559 h 16.8125 v 7.918 15.7187 h -8.47656 v 87.7422 H 758 v -91.1523 h -0.0332 v -12.3242 h 8.46289 v 7.7871 h 92.01562 v -7.7481 h 8.43164 v 7.7481 h 192.63285 v -7.8692 h 8.5293 v 103.752 h 58.4765 v -87.8945 h -8.3594 v -7.879 h -8.2988 v -7.9648 h 16.6582 v -0.014 -15.664 h 8.3321 v 7.7715 h 8.5117 v 7.9316 h 510.4277 v -7.7988 h 8.4199 v 7.7539 h 117.0762 V 1272.291 h -8.3086 v -8.0488 h 8.3399 v -85.9434 h 0.027 v -18.2793 h -0.027 V 746.27539 h -8.2559 v -7.98437 h 8.3887 V 371.6875 h 0.033 v -17.51172 h -0.033 v -88.06055 h -8.3477 v -8.67187 h 8.3477 V 156.59961 109.42773 54.638672 Z M 824.8884,1511.6625 h 83.7303 v 80.6424 H 824.8884 Z M 0.9304,0.9304 v 1518.7221 h 96.399 v -8.0216 h 718.4897 v 8.0216 81.039 h 101.5691 c 0.4589,-29.5982 0.011,-59.3598 0.2647,-88.8654 h 877.4765 v 7.8264 h 102.1253 V 0.9304 H 1327.4036 V 266.449 h 325.653 v 91.0622 h -41.6982 v 814.2433 h 33.4275 v 91.6242 h -592.85 v -91.6242 -46.9369 h 50.0645 V 672.2659 H 765.6185 v 452.3157 h 50.4544 v 79.2503 59.9093 H 214.6224 v -59.9093 h 47.1725 v -79.2503 0 l 0.6472,-758.7315 H 222.4147 V 258.4433 H 561.1573 V 0.9304 Z m 824.1109,1123.5747 v 86.372 141.9574 h 167.6518 v -141.9574 h 50.1044 v -86.372 z m 828.9237,62.5482 h 66.6998 v 39.0558 h -66.6998 z m -0.098,7.821 h 66.8763 v 23.5092 h -66.8763 z m 0,0 h 66.8921 v 15.558 h -66.8921 z m 0.027,7.9358 h 65.3894 v 0.035 h -65.3894 z m 33.3903,-14.9214 h 0.07 v 38.1207 h -0.07 z m -25.1042,-883.0834 h 58.4913 v 37.5975 h -58.4913 z m -0.049,7.6242 h 58.5345 v 22.9219 h -58.5345 z m 0.01,7.6921 h 58.5268 v 7.775 h -58.5268 z m 33.5642,-15.2692 h 0.1391 v 37.4946 h -0.1391 z M 1068.035,1430.7337 h 58.473 v 56.6531 h -58.474 z m -0.01,8.4087 h 58.4826 v 39.7621 h -58.4837 z m -0.01,8.1476 h 58.4844 v 23.8764 h -58.4855 z m 0,7.5548 h 58.497 v 8.2059 h -58.4971 z m 33.337,-24.1109 h 0.07 v 56.3463 h -0.07 z m -393.6296,0 h 50.2768 v 56.5671 h -50.2768 z m -0.012,8.4349 h 50.2809 v 39.8986 h -50.2809 z m 0,7.8084 h 50.2942 v 23.9124 h -50.2942 z m 0.012,8.1052 h 50.2767 v 8.3779 h -50.2767 z m 25.1877,-24.3134 h 0.017 v 56.2593 h -0.017 z M 825.21,1210.713 h 7.8452 m -7.9668,61.4859 h 7.1921 M 992.693,1210.8771 H 859.3711 m 7.4136,0.3187 v 60.9308 m -7.2346,0.1424 h 14.6778 m 10.0171,0 h 15.9996 m 50.2731,0 h 16.3307 m -74.8794,-61.3926 h 66.8515 v 45.4214 H 891.969 Z m -0.032,7.4184 h 66.88 v 30.547 h -66.88 z m 0,7.8543 h 66.8809 v 15.6163 H 891.937 Z m 0,7.855 h 66.7842 M 159.38417,312.32946 h 54.95113 v 37.5975 h -54.95142 z m -0.008,7.6242 h 54.95347 v 22.9219 h -54.95347 z m -0.0289,7.6921 h 54.9845 v 7.775 h -54.9845 z m 31.53274,-15.2692 h 0.13068 v 37.4946 h -0.13068 z M 159.49434,156.79298 h 7.55879 m 0.0194,0.005 v 7.61744 m -7.65028,3.4e-4 h 7.63398"
     style="fill:none;fill-opacity:1;stroke:#000000;stroke-width:2.02364111;stroke-linecap:square;stroke-linejoin:miter;stroke-miterlimit:2;stroke-dasharray:none;stroke-opacity:1"
     id="path4802" />
  <g
     transform="translate(-2902.5881,-2448.5113)"
     style="display:inline"
     id="layer1" />
  <rect
     y="9.5679979"
     x="1335.6514"
     height="91.96032"
     width="50.256836"
     id="rect4900"
     style="opacity:1;vector-effect:none;fill:none;fill-opacity:1;fill-rule:evenodd;stroke:#000000;stroke-width:2;stroke-linecap:square;stroke-linejoin:miter;stroke-miterlimit:2;stroke-dasharray:none;stroke-dashoffset:0;stroke-opacity:1" />
  <rect
     y="9.5679979"
     x="1385.9082"
     height="91.96032"
     width="50.342072"
     id="rect4902"
     style="opacity:1;vector-effect:none;fill:none;fill-opacity:1;fill-rule:evenodd;stroke:#000000;stroke-width:2;stroke-linecap:square;stroke-linejoin:miter;stroke-miterlimit:2;stroke-dasharray:none;stroke-dashoffset:0;stroke-opacity:1" />
  <rect
     y="9.5679979"
     x="1436.2502"
     height="91.96032"
     width="58.483887"
     id="rect4904"
     style="opacity:1;vector-effect:none;fill:none;fill-opacity:1;fill-rule:evenodd;stroke:#000000;stroke-width:2;stroke-linecap:square;stroke-linejoin:miter;stroke-miterlimit:2;stroke-dasharray:none;stroke-dashoffset:0;stroke-opacity:1" />
  <rect
     y="9.5679979"
     x="1494.7341"
     height="91.984718"
     width="58.656372"
     id="rect4906"
     style="opacity:1;vector-effect:none;fill:none;fill-opacity:1;fill-rule:evenodd;stroke:#000000;stroke-width:2;stroke-linecap:square;stroke-linejoin:miter;stroke-miterlimit:2;stroke-dasharray:none;stroke-dashoffset:0;stroke-opacity:1" />
  <rect
     y="9.5679979"
     x="1553.3905"
     height="91.984734"
     width="50.167969"
     id="rect4908"
     style="opacity:1;vector-effect:none;fill:none;fill-opacity:1;fill-rule:evenodd;stroke:#000000;stroke-width:2;stroke-linecap:square;stroke-linejoin:miter;stroke-miterlimit:2;stroke-dasharray:none;stroke-dashoffset:0;stroke-opacity:1" />
  <rect
     y="9.5679979"
     x="1603.5585"
     height="91.984718"
     width="117.21741"
     id="rect4910"
     style="opacity:1;vector-effect:none;fill:none;fill-opacity:1;fill-rule:evenodd;stroke:#000000;stroke-width:2;stroke-linecap:square;stroke-linejoin:miter;stroke-miterlimit:2;stroke-dasharray:none;stroke-dashoffset:0;stroke-opacity:1" />
  <rect
     y="164.41406"
     x="1335.4927"
     height="93.622314"
     width="50.640137"
     id="rect4912"
     style="opacity:1;vector-effect:none;fill:none;fill-opacity:1;fill-rule:evenodd;stroke:#000000;stroke-width:2;stroke-linecap:square;stroke-linejoin:miter;stroke-miterlimit:2;stroke-dasharray:none;stroke-dashoffset:0;stroke-opacity:1" />
  <rect
     y="164.41406"
     x="1386.1328"
     height="93.622314"
     width="50.205078"
     id="rect4914"
     style="opacity:1;vector-effect:none;fill:none;fill-opacity:1;fill-rule:evenodd;stroke:#000000;stroke-width:2;stroke-linecap:square;stroke-linejoin:miter;stroke-miterlimit:2;stroke-dasharray:none;stroke-dashoffset:0;stroke-opacity:1" />
  <rect
     y="164.41406"
     x="1436.3379"
     height="93.633133"
     width="58.579281"
     id="rect4916"
     style="opacity:1;vector-effect:none;fill:none;fill-opacity:1;fill-rule:evenodd;stroke:#000000;stroke-width:2;stroke-linecap:square;stroke-linejoin:miter;stroke-miterlimit:2;stroke-dasharray:none;stroke-dashoffset:0;stroke-opacity:1" />
</svg>
